<svg width="180" height="59" viewBox="0 0 180 59" fill="none" xmlns="http://www.w3.org/2000/svg">
<g clip-path="url(#clip0_102_64)">
<path d="M23.2709 37.6608C20.7203 40.1839 16.4006 40.1738 15.1942 36.8111C14.958 36.1527 14.7692 35.4758 14.6303 34.7851C14.0631 31.9647 14.3542 29.0415 15.4666 26.3848C16.5791 23.7282 18.4629 21.4575 20.8799 19.8599C23.2969 18.2624 26.1385 17.4097 29.0454 17.4097C31.9523 17.4097 34.7939 18.2624 37.2109 19.8599C39.6279 21.4575 41.5117 23.7282 42.6241 26.3848C43.7366 29.0415 44.0276 31.9647 43.4605 34.7851C43.3216 35.4758 43.1328 36.1527 42.8965 36.8111C41.6901 40.1738 37.3704 40.1839 34.8198 37.6608L30.8826 33.766C30.5064 33.3939 30.5453 32.7802 30.6491 32.2642C30.7121 31.9504 30.6797 31.6252 30.556 31.3297C30.4322 31.0341 30.2227 30.7815 29.9538 30.6038C29.6849 30.4261 29.3688 30.3312 29.0454 30.3312C28.722 30.3312 28.4059 30.4261 28.137 30.6038C27.8681 30.7815 27.6585 31.0341 27.5348 31.3297C27.411 31.6252 27.3786 31.9504 27.4418 32.2642C27.5455 32.7802 27.5843 33.3939 27.2082 33.766L23.2709 37.6608Z" fill="url(#paint0_linear_102_64)"/>
</g>
<defs>
<linearGradient id="paint0_linear_102_64" x1="42.4051" y1="24.6792" x2="16.3169" y2="24.6792" gradientUnits="userSpaceOnUse">
<stop stop-color="#161490"/>
<stop offset="0.510417" stop-color="#7476ED"/>
<stop offset="1" stop-color="#E56F8C"/>
</linearGradient>
<clipPath id="clip0_102_64">
<rect width="132.391" height="24.5027" fill="white" transform="translate(14.3478 17.4097)"/>
</clipPath>
</defs>
</svg>
