<svg width="123" height="41" viewBox="0 0 123 41" fill="none" xmlns="http://www.w3.org/2000/svg">
<g clip-path="url(#clip0_102_356)">
<path d="M15.9018 26.1709C14.1589 27.9243 11.207 27.9173 10.3827 25.5805C10.2213 25.123 10.0922 24.6526 9.99731 24.1726C9.60978 22.2127 9.80867 20.1812 10.5688 18.3351C11.329 16.489 12.6163 14.911 14.2679 13.8009C15.9195 12.6907 17.8613 12.0981 19.8477 12.0981C21.834 12.0981 23.7758 12.6907 25.4274 13.8009C27.079 14.911 28.3663 16.489 29.1265 18.3351C29.8866 20.1812 30.0855 22.2127 29.698 24.1726C29.6031 24.6526 29.474 25.123 29.3126 25.5805C28.4882 27.9173 25.5364 27.9243 23.7935 26.1709L21.1031 23.4644C20.846 23.2058 20.8726 22.7794 20.9435 22.4208C20.9866 22.2027 20.9644 21.9767 20.8799 21.7714C20.7953 21.566 20.6521 21.3904 20.4684 21.2669C20.2846 21.1435 20.0686 21.0775 19.8477 21.0775C19.6267 21.0775 19.4107 21.1435 19.2269 21.2669C19.0431 21.3904 18.9 21.566 18.8154 21.7714C18.7308 21.9767 18.7087 22.2027 18.7518 22.4208C18.8228 22.7794 18.8493 23.2058 18.5922 23.4644L15.9018 26.1709Z" fill="url(#paint0_linear_102_356)"/>
</g>
<defs>
<linearGradient id="paint0_linear_102_356" x1="28.9768" y1="17.1498" x2="11.1499" y2="17.1498" gradientUnits="userSpaceOnUse">
<stop stop-color="#64C2DB"/>
<stop offset="0.510417" stop-color="#7476ED"/>
<stop offset="1" stop-color="#E56F8C"/>
</linearGradient>
<clipPath id="clip0_102_356">
<rect width="90.4674" height="17.0273" fill="white" transform="translate(9.80432 12.0981)"/>
</clipPath>
</defs>
</svg>
