<svg width="394" height="387" viewBox="0 0 394 387" fill="none" xmlns="http://www.w3.org/2000/svg">
<path d="M337.692 193.5C337.692 268.888 275.355 331.5 196.596 331.5C117.837 331.5 55.5002 268.888 55.5002 193.5C55.5002 118.112 117.837 55.5 196.596 55.5C275.355 55.5 337.692 118.112 337.692 193.5Z" stroke="white" stroke-opacity="0.06" stroke-width="111"/>
<path d="M365.308 193.5C365.308 282.477 292.065 354.988 201.24 354.988C110.416 354.988 37.1722 282.477 37.1722 193.5C37.1722 104.523 110.416 32.012 201.24 32.012C292.065 32.012 365.308 104.523 365.308 193.5Z" stroke="white" stroke-opacity="0.06" stroke-width="31"/>
<path d="M344.668 194.016C344.668 271.233 280.742 334.348 201.24 334.348C121.738 334.348 57.8123 271.233 57.8123 194.016C57.8123 116.799 121.738 53.6841 201.24 53.6841C280.742 53.6841 344.668 116.799 344.668 194.016Z" stroke="white" stroke-opacity="0.06" stroke-width="31"/>
</svg>
