<svg width="166" height="94" viewBox="0 0 166 94" fill="none" xmlns="http://www.w3.org/2000/svg">
<path d="M83.47 75.8361C83.152 75.8361 82.855 75.7521 82.58 75.6061L79.758 73.9491C79.334 73.7191 79.546 73.6341 79.673 73.5921C80.246 73.4021 80.353 73.3621 80.946 73.0261C81.01 72.9841 81.096 73.0061 81.158 73.0461L83.322 74.3261C83.407 74.3681 83.512 74.3681 83.576 74.3261L92.042 69.4801C92.127 69.4381 92.169 69.3541 92.169 69.2501V59.5781C92.169 59.4731 92.126 59.3881 92.042 59.3481L83.576 54.5231C83.491 54.4811 83.386 54.4811 83.322 54.5231L74.856 59.3481C74.771 59.3901 74.729 59.4951 74.729 59.5781V69.2501C74.729 69.3341 74.772 69.4401 74.856 69.4801L77.169 70.8021C78.421 71.4321 79.206 70.6971 79.206 69.9621V60.4161C79.206 60.2901 79.312 60.1641 79.461 60.1641H80.543C80.67 60.1641 80.798 60.2691 80.798 60.4161V69.9621C80.798 71.6191 79.886 72.5851 78.294 72.5851C77.806 72.5851 77.424 72.5851 76.342 72.0601L74.114 70.8001C73.562 70.4851 73.224 69.8981 73.224 69.2681V59.5961C73.224 58.9661 73.564 58.3791 74.114 58.0641L82.58 53.2181C83.11 52.9241 83.832 52.9241 84.363 53.2181L92.829 58.0641C93.381 58.3791 93.719 58.9661 93.719 59.5961V69.2681C93.719 69.8981 93.379 70.4851 92.829 70.8001L84.363 75.6461C84.0825 75.7708 83.779 75.8352 83.472 75.8351L83.47 75.8361ZM86.07 69.1861C82.357 69.1861 81.593 67.5081 81.593 66.0811C81.593 65.9551 81.699 65.8291 81.848 65.8291H82.951C83.078 65.8291 83.184 65.9131 83.184 66.0291C83.354 67.1411 83.842 67.6861 86.091 67.6861C87.873 67.6861 88.637 67.2861 88.637 66.3431C88.637 65.7981 88.425 65.3991 85.645 65.1261C83.332 64.8961 81.889 64.3921 81.889 62.5661C81.889 60.8661 83.332 59.8591 85.751 59.8591C88.467 59.8591 89.804 60.7821 89.974 62.7961C89.974 62.8591 89.954 62.9221 89.91 62.9861C89.867 63.0281 89.804 63.0701 89.74 63.0701H88.637C88.531 63.0701 88.425 62.9861 88.404 62.8801C88.149 61.7261 87.492 61.3481 85.752 61.3481C83.8 61.3481 83.566 62.0181 83.566 62.5231C83.566 63.1311 83.842 63.3201 86.473 63.6561C89.073 63.9921 90.313 64.4741 90.313 66.2791C90.293 68.1251 88.763 69.1741 86.069 69.1741L86.07 69.1861Z" fill="#539E43"/>
<path d="M57.2 38.0081C57.2 37.6301 56.988 37.2741 56.648 37.0851L47.651 31.9651C47.501 31.8811 47.333 31.8391 47.163 31.8181H47.078C46.908 31.8181 46.738 31.8811 46.59 31.9651L37.593 37.0851C37.253 37.2751 37.041 37.6301 37.041 38.0081L37.061 51.7711C37.0605 51.866 37.086 51.9592 37.1346 52.0406C37.1832 52.122 37.2532 52.1886 37.337 52.2331C37.507 52.3381 37.719 52.3381 37.867 52.2331L43.214 49.2131C43.554 49.0231 43.766 48.6681 43.766 48.2901V41.8501C43.766 41.4721 43.978 41.1161 44.318 40.9271L46.588 39.6271C46.758 39.5221 46.948 39.4801 47.14 39.4801C47.3279 39.4737 47.5132 39.525 47.671 39.6271L49.941 40.9271C50.281 41.1171 50.493 41.4721 50.493 41.8501V48.2901C50.493 48.6681 50.705 49.0241 51.045 49.2131L56.392 52.2331C56.562 52.3381 56.774 52.3381 56.944 52.2331C57.0278 52.1886 57.0978 52.122 57.1464 52.0406C57.1951 51.9592 57.2205 51.866 57.22 51.7711L57.2 38.0081ZM100.445 19.0631C100.363 19.0216 100.272 19 100.18 19C100.087 19 99.9964 19.0216 99.914 19.0631C99.744 19.1681 99.638 19.3361 99.638 19.5231V33.1601C99.638 33.2861 99.574 33.4121 99.448 33.4961C99.3891 33.5271 99.3236 33.5433 99.257 33.5433C99.1905 33.5433 99.1249 33.5271 99.066 33.4961L96.816 32.2161C96.481 32.0261 96.069 32.0261 95.734 32.2161L86.737 37.3561C86.397 37.5461 86.185 37.9011 86.185 38.2791V48.5391C86.185 48.9171 86.397 49.2731 86.737 49.4621L95.734 54.6021C96.069 54.7921 96.481 54.7921 96.816 54.6021L105.813 49.4621C106.153 49.2721 106.365 48.9171 106.365 48.5391V22.9651C106.365 22.5651 106.153 22.2101 105.813 22.0211L100.445 19.0631ZM99.618 45.1631C99.618 45.2681 99.576 45.3531 99.491 45.3931L96.414 47.1551C96.327 47.1971 96.224 47.1971 96.138 47.1551L93.061 45.3931C92.976 45.3511 92.934 45.2461 92.934 45.1631V41.6381C92.934 41.5331 92.976 41.4481 93.061 41.4081L96.138 39.6461C96.225 39.6041 96.328 39.6041 96.414 39.6461L99.491 41.4081C99.576 41.4501 99.618 41.5551 99.618 41.6381V45.1631ZM130.385 41.5531C130.725 41.3631 130.915 41.0081 130.915 40.6301V38.1331C130.913 37.9467 130.863 37.764 130.77 37.6024C130.677 37.4408 130.544 37.3057 130.384 37.2101L121.451 32.0901C121.116 31.9001 120.704 31.9001 120.369 32.0901L111.372 37.2301C111.032 37.4201 110.82 37.7751 110.82 38.1531V48.4131C110.82 48.7911 111.032 49.1471 111.372 49.3361L120.305 54.3711C120.645 54.5611 121.048 54.5611 121.365 54.3711L126.775 51.3911C126.859 51.3466 126.929 51.28 126.977 51.1986C127.026 51.1172 127.052 51.024 127.051 50.9291C127.052 50.8343 127.026 50.7411 126.977 50.6596C126.929 50.5782 126.859 50.5116 126.775 50.4671L117.735 45.3271C117.565 45.2221 117.459 45.0541 117.459 44.8671V41.6671C117.459 41.5723 117.484 41.4791 117.533 41.3976C117.581 41.3162 117.651 41.2496 117.735 41.2051L120.557 39.6101C120.727 39.5051 120.94 39.5051 121.109 39.6101L123.931 41.2051C124.101 41.3101 124.207 41.4781 124.207 41.6671V44.1851C124.207 44.2798 124.232 44.3728 124.281 44.454C124.329 44.5353 124.399 44.6017 124.483 44.6461C124.653 44.7511 124.865 44.7511 125.035 44.6461L130.382 41.5621L130.385 41.5531Z" fill="#333333"/>
<path d="M120.773 41.0701C120.837 41.0281 120.921 41.0281 120.985 41.0701L122.705 42.0561C122.769 42.0981 122.811 42.1611 122.811 42.2461V44.2181C122.811 44.256 122.801 44.2934 122.783 44.3265C122.764 44.3597 122.738 44.3874 122.705 44.4071L120.985 45.3931C120.921 45.4351 120.837 45.4351 120.773 45.3931L119.053 44.4071C119.021 44.3874 118.994 44.3597 118.975 44.3265C118.957 44.2934 118.947 44.256 118.947 44.2181V42.2461C118.947 42.1621 118.989 42.0991 119.053 42.0561L120.773 41.0701Z" fill="#539E43"/>
<path d="M72.244 32.1332C71.909 31.9432 71.497 31.9432 71.162 32.1332L62.229 37.2312C61.889 37.4212 61.699 37.7762 61.699 38.1542V48.3722C61.7012 48.5586 61.7512 48.7414 61.8441 48.903C61.9371 49.0646 62.07 49.1996 62.23 49.2952L71.163 54.3932C71.498 54.5832 71.91 54.5832 72.245 54.3932L81.178 49.2952C81.518 49.1052 81.708 48.7502 81.708 48.3722V38.1542C81.7058 37.9678 81.6559 37.7851 81.5629 37.6235C81.4699 37.4619 81.3371 37.3268 81.177 37.2312L72.244 32.1332Z" fill="url(#paint0_linear_1_763)"/>
<mask id="mask0_1_763" style="mask-type:alpha" maskUnits="userSpaceOnUse" x="61" y="31" width="21" height="24">
<path d="M72.244 32.1332C71.909 31.9432 71.497 31.9432 71.162 32.1332L62.229 37.2312C61.889 37.4212 61.699 37.7762 61.699 38.1542V48.3722C61.7012 48.5586 61.7512 48.7414 61.8441 48.903C61.9371 49.0646 62.07 49.1996 62.23 49.2952L71.163 54.3932C71.498 54.5832 71.91 54.5832 72.245 54.3932L81.178 49.2952C81.518 49.1052 81.708 48.7502 81.708 48.3722V38.1542C81.7058 37.9678 81.6559 37.7851 81.5629 37.6235C81.4699 37.4619 81.3371 37.3268 81.177 37.2312L72.244 32.1332Z" fill="white"/>
</mask>
<g mask="url(#mask0_1_763)">
<path d="M81.199 37.2313L72.214 32.1333C72.134 32.0793 72.044 32.0543 71.948 32.0293L61.89 49.0643C61.973 49.1643 62.074 49.2503 62.187 49.3163L71.163 54.4143C71.418 54.5613 71.715 54.6043 71.99 54.5193L81.434 37.4413C81.3664 37.3605 81.2876 37.2898 81.2 37.2313H81.199Z" fill="url(#paint1_linear_1_763)"/>
</g>
<mask id="mask1_1_763" style="mask-type:alpha" maskUnits="userSpaceOnUse" x="61" y="31" width="21" height="24">
<path d="M72.244 32.1332C71.909 31.9432 71.497 31.9432 71.162 32.1332L62.229 37.2312C61.889 37.4212 61.699 37.7762 61.699 38.1542V48.3722C61.7012 48.5586 61.7512 48.7414 61.8441 48.903C61.9371 49.0646 62.07 49.1996 62.23 49.2952L71.163 54.3932C71.498 54.5832 71.91 54.5832 72.245 54.3932L81.178 49.2952C81.518 49.1052 81.708 48.7502 81.708 48.3722V38.1542C81.7058 37.9678 81.6559 37.7851 81.5629 37.6235C81.4699 37.4619 81.3371 37.3268 81.177 37.2312L72.244 32.1332Z" fill="white"/>
</mask>
<g mask="url(#mask1_1_763)">
<path fill-rule="evenodd" clip-rule="evenodd" d="M81.22 49.2952C81.475 49.1482 81.666 48.8952 81.75 48.6252L71.904 32.0092C71.649 31.9672 71.374 31.9892 71.14 32.1352L62.229 37.2112L71.841 54.5412C71.9806 54.5185 72.1163 54.4761 72.244 54.4152L81.22 49.2952Z" fill="url(#paint2_linear_1_763)"/>
<path d="M81.22 49.295L72.266 54.393C72.1395 54.4569 72.0033 54.4994 71.863 54.519L72.033 54.834L81.963 49.149V49.023L81.708 48.603C81.666 48.897 81.475 49.148 81.22 49.295Z" fill="url(#paint3_linear_1_763)"/>
<path d="M81.22 49.295L72.266 54.393C72.1395 54.4569 72.0033 54.4994 71.863 54.519L72.033 54.834L81.963 49.149V49.023L81.708 48.603C81.666 48.897 81.475 49.148 81.22 49.295Z" fill="url(#paint4_linear_1_763)"/>
</g>
<defs>
<linearGradient id="paint0_linear_1_763" x1="74.5708" y1="35.9332" x2="66.8306" y2="51.5433" gradientUnits="userSpaceOnUse">
<stop stop-color="#41873F"/>
<stop offset="0.3288" stop-color="#418B3D"/>
<stop offset="0.6352" stop-color="#419637"/>
<stop offset="0.9319" stop-color="#3FA92D"/>
<stop offset="1" stop-color="#3FAE2A"/>
</linearGradient>
<linearGradient id="paint1_linear_1_763" x1="70.6737" y1="44.4607" x2="89.6748" y2="30.5784" gradientUnits="userSpaceOnUse">
<stop offset="0.1376" stop-color="#41873F"/>
<stop offset="0.4032" stop-color="#54A044"/>
<stop offset="0.7136" stop-color="#66B848"/>
<stop offset="0.9081" stop-color="#6CC04A"/>
</linearGradient>
<linearGradient id="paint2_linear_1_763" x1="61.3722" y1="43.265" x2="82.0426" y2="43.265" gradientUnits="userSpaceOnUse">
<stop offset="0.09192" stop-color="#6CC04A"/>
<stop offset="0.2864" stop-color="#66B848"/>
<stop offset="0.5968" stop-color="#54A044"/>
<stop offset="0.8624" stop-color="#41873F"/>
</linearGradient>
<linearGradient id="paint3_linear_1_763" x1="61.373" y1="51.7357" x2="82.0435" y2="51.7357" gradientUnits="userSpaceOnUse">
<stop offset="0.09192" stop-color="#6CC04A"/>
<stop offset="0.2864" stop-color="#66B848"/>
<stop offset="0.5968" stop-color="#54A044"/>
<stop offset="0.8624" stop-color="#41873F"/>
</linearGradient>
<linearGradient id="paint4_linear_1_763" x1="85.0549" y1="45.5271" x2="78.645" y2="58.4563" gradientUnits="userSpaceOnUse">
<stop stop-color="#41873F"/>
<stop offset="0.3288" stop-color="#418B3D"/>
<stop offset="0.6352" stop-color="#419637"/>
<stop offset="0.9319" stop-color="#3FA92D"/>
<stop offset="1" stop-color="#3FAE2A"/>
</linearGradient>
</defs>
</svg>
